<?xml version="1.0" standalone="no"?>
<!DOCTYPE svg PUBLIC "-//W3C//DTD SVG 20010904//EN"
 "http://www.w3.org/TR/2001/REC-SVG-20010904/DTD/svg10.dtd">
<svg version="1.0" xmlns="http://www.w3.org/2000/svg"
 width="600.000000pt" height="300.000000pt" viewBox="0 0 600.000000 300.000000"
 preserveAspectRatio="xMidYMid meet">

<g transform="translate(0.000000,300.000000) scale(0.100000,-0.100000)"
fill="#000000" stroke="none">
<path d="M1720 2984 c-105 -28 -178 -102 -205 -210 -14 -54 -15 -209 -13
-1305 l3 -1244 23 -50 c32 -70 95 -131 160 -155 52 -20 79 -20 1321 -20 l1268
0 61 31 c65 32 99 66 135 133 l22 41 3 1274 c3 1437 8 1333 -75 1422 -24 26
-67 57 -96 70 l-52 24 -1250 2 c-1073 2 -1258 0 -1305 -13z m1905 -763 c55
-46 101 -86 102 -90 2 -6 -211 -183 -228 -189 -5 -2 -9 19 -9 47 l0 51 -525 0
-525 0 0 -135 0 -135 188 -2 187 -3 3 -260 2 -260 -80 -67 c-44 -38 -82 -68
-85 -68 -3 0 -5 113 -5 250 l0 250 -185 0 -185 0 0 300 0 300 605 0 605 0 0
61 c0 57 1 60 17 48 10 -8 63 -52 118 -98z m25 -471 l0 -140 -180 0 -180 0 -2
-412 -3 -413 -232 -3 -233 -2 0 -55 c0 -30 -3 -55 -7 -55 -5 0 -63 42 -130 94
l-122 93 115 97 c63 53 122 100 130 103 11 4 14 -6 14 -51 l0 -56 150 0 150 0
0 410 0 410 193 0 192 0 70 60 c39 33 71 60 73 60 1 0 2 -63 2 -140z"/>
</g>
</svg>
